<svg width="296" height="85" viewBox="0 0 296 85" fill="none" xmlns="http://www.w3.org/2000/svg">
<path d="M285.037 1.70266C290.113 1.70266 294.243 5.70564 294.243 10.625V74.375C294.243 79.2944 290.113 83.2973 285.037 83.2973H10.963C5.88711 83.2973 1.75681 79.2944 1.75681 74.375V10.625C1.75681 5.70564 5.88711 1.70266 10.963 1.70266H285.037ZM285.037 7.62939e-06H10.963C4.93607 7.62939e-06 0 4.78391 0 10.625V74.375C0 80.2161 4.93607 85 10.963 85H285.037C291.064 85 296 80.2161 296 74.375V10.625C296 4.78391 291.064 7.62939e-06 285.037 7.62939e-06Z" fill="white"/>
<path d="M66.0584 42.0409C65.9948 35.1921 71.8447 31.8601 72.1122 31.7049C68.7992 27.0236 63.6641 26.3839 61.8596 26.3329C57.5468 25.8931 53.3633 28.8341 51.1663 28.8341C48.9255 28.8341 45.5423 26.3754 41.896 26.4477C37.2039 26.5178 32.8143 29.1507 30.4069 33.2392C25.4384 41.5756 29.1439 53.8262 33.904 60.5646C36.2852 63.8647 39.0676 67.5494 42.7095 67.4198C46.2725 67.2774 47.6034 65.2183 51.903 65.2183C56.1632 65.2183 57.413 67.4198 61.1273 67.3369C64.9512 67.2774 67.3586 64.0219 69.6565 60.6921C72.4082 56.9096 73.5132 53.1844 73.5571 52.9932C73.4672 52.9634 66.1308 50.2498 66.0584 42.0409Z" fill="white"/>
<path d="M59.0421 21.9002C60.9584 19.5776 62.2696 16.4177 61.9056 13.2111C59.132 13.3301 55.6633 15.0704 53.6659 17.3421C51.8987 19.3438 50.32 22.6248 50.7278 25.7103C53.8435 25.9356 57.0425 24.1867 59.0421 21.9002Z" fill="white"/>
<path d="M107.547 21.2691C107.547 23.7702 106.773 25.653 105.227 26.9174C103.795 28.084 101.76 28.6684 99.1249 28.6684C97.8181 28.6684 96.6999 28.6131 95.7637 28.5026V14.8367C96.9849 14.6455 98.3005 14.5477 99.7213 14.5477C102.232 14.5477 104.124 15.0769 105.4 16.1351C106.83 17.3315 107.547 19.0421 107.547 21.2691ZM105.124 21.3307C105.124 19.7094 104.681 18.4662 103.795 17.5992C102.909 16.7344 101.616 16.3009 99.9121 16.3009C99.1885 16.3009 98.5724 16.3476 98.0615 16.4454V26.8345C98.3444 26.877 98.8618 26.8961 99.6139 26.8961C101.372 26.8961 102.73 26.4222 103.686 25.4745C104.641 24.5267 105.124 23.1455 105.124 21.3307Z" fill="white"/>
<path d="M120.393 23.4536C120.393 24.9942 119.939 26.2565 119.032 27.2467C118.08 28.2646 116.819 28.7725 115.245 28.7725C113.728 28.7725 112.52 28.2858 111.618 27.3083C110.719 26.333 110.27 25.1026 110.27 23.6194C110.27 22.0681 110.733 20.7952 111.662 19.8071C112.592 18.819 113.842 18.3239 115.416 18.3239C116.933 18.3239 118.152 18.8105 119.075 19.7859C119.952 20.7336 120.393 21.9576 120.393 23.4536ZM118.01 23.5259C118.01 22.6015 117.804 21.8089 117.394 21.148C116.911 20.349 116.225 19.9495 115.333 19.9495C114.41 19.9495 113.708 20.349 113.226 21.148C112.813 21.8089 112.609 22.6142 112.609 23.5662C112.609 24.4906 112.815 25.2832 113.226 25.9441C113.723 26.7431 114.416 27.1426 115.311 27.1426C116.188 27.1426 116.876 26.7367 117.372 25.9229C117.797 25.2492 118.01 24.4502 118.01 23.5259Z" fill="white"/>
<path d="M137.618 18.528L134.384 28.5452H132.279L130.939 24.1953C130.6 23.1095 130.323 22.03 130.108 20.959H130.067C129.867 22.0597 129.591 23.1371 129.236 24.1953L127.813 28.5452H125.684L122.643 18.528H125.004L126.173 23.2901C126.456 24.4163 126.688 25.4895 126.874 26.5052H126.916C127.087 25.668 127.37 24.6012 127.769 23.3113L129.236 18.5301H131.108L132.514 23.2093C132.854 24.3505 133.13 25.4491 133.343 26.5073H133.406C133.562 25.4767 133.796 24.3781 134.108 23.2093L135.362 18.5301H137.618V18.528Z" fill="white"/>
<path d="M149.53 28.5451H147.233V22.8076C147.233 21.0396 146.54 20.1556 145.15 20.1556C144.468 20.1556 143.917 20.3979 143.49 20.8845C143.067 21.3711 142.852 21.9449 142.852 22.6015V28.543H140.554V21.3903C140.554 20.5105 140.525 19.5564 140.471 18.5236H142.49L142.597 20.0898H142.661C142.929 19.6031 143.328 19.2015 143.852 18.8806C144.474 18.5066 145.172 18.3175 145.935 18.3175C146.899 18.3175 147.702 18.6193 148.34 19.2249C149.134 19.9665 149.53 21.0736 149.53 22.5441V28.5451Z" fill="white"/>
<path d="M155.867 28.5451H153.571V13.9315H155.867V28.5451Z" fill="white"/>
<path d="M169.395 23.4536C169.395 24.9942 168.941 26.2565 168.034 27.2467C167.082 28.2646 165.819 28.7725 164.247 28.7725C162.728 28.7725 161.52 28.2858 160.621 27.3083C159.722 26.333 159.272 25.1026 159.272 23.6194C159.272 22.0681 159.735 20.7952 160.664 19.8071C161.594 18.819 162.844 18.3239 164.416 18.3239C165.935 18.3239 167.152 18.8105 168.078 19.7859C168.955 20.7336 169.395 21.9576 169.395 23.4536ZM167.01 23.5259C167.01 22.6015 166.804 21.8089 166.394 21.148C165.914 20.349 165.225 19.9495 164.335 19.9495C163.41 19.9495 162.708 20.349 162.228 21.148C161.816 21.8089 161.612 22.6142 161.612 23.5662C161.612 24.4906 161.818 25.2832 162.228 25.9441C162.725 26.7431 163.418 27.1426 164.313 27.1426C165.19 27.1426 165.876 26.7367 166.372 25.9229C166.799 25.2492 167.01 24.4502 167.01 23.5259Z" fill="white"/>
<path d="M180.516 28.5451H178.453L178.282 27.3912H178.218C177.512 28.3114 176.506 28.7725 175.199 28.7725C174.223 28.7725 173.434 28.4686 172.84 27.8651C172.301 27.3168 172.031 26.6347 172.031 25.8251C172.031 24.6011 172.557 23.6682 173.616 23.0222C174.673 22.3762 176.159 22.0596 178.074 22.0745V21.8875C178.074 20.5679 177.359 19.9091 175.927 19.9091C174.907 19.9091 174.009 20.1577 173.232 20.6507L172.765 19.1887C173.726 18.6129 174.912 18.3239 176.311 18.3239C179.012 18.3239 180.367 19.7051 180.367 22.4676V26.1566C180.367 27.1575 180.417 27.9543 180.516 28.5451ZM178.131 25.1026V23.5577C175.596 23.5152 174.329 24.1889 174.329 25.5765C174.329 26.0992 174.473 26.4902 174.769 26.7516C175.065 27.013 175.442 27.1426 175.892 27.1426C176.396 27.1426 176.868 26.9875 177.297 26.6794C177.729 26.3691 177.995 25.976 178.093 25.4936C178.117 25.3852 178.131 25.2535 178.131 25.1026Z" fill="white"/>
<path d="M193.573 28.5451H191.534L191.427 26.9365H191.363C190.712 28.1605 189.602 28.7725 188.043 28.7725C186.798 28.7725 185.761 28.2986 184.939 27.3509C184.116 26.4031 183.706 25.1728 183.706 23.6619C183.706 22.0405 184.152 20.7273 185.046 19.7243C185.912 18.7893 186.973 18.3218 188.236 18.3218C189.624 18.3218 190.596 18.7744 191.148 19.6818H191.192V13.9315H193.492V25.8464C193.492 26.8218 193.518 27.7206 193.573 28.5451ZM191.192 24.3206V22.6504C191.192 22.3614 191.17 22.1276 191.128 21.9491C190.999 21.4136 190.72 20.9631 190.297 20.5998C189.87 20.2364 189.355 20.0536 188.76 20.0536C187.903 20.0536 187.232 20.383 186.739 21.0439C186.25 21.7048 186.002 22.5484 186.002 23.579C186.002 24.5693 186.237 25.3725 186.708 25.9909C187.206 26.6496 187.877 26.979 188.716 26.979C189.471 26.979 190.074 26.7049 190.532 26.1545C190.975 25.6466 191.192 25.0346 191.192 24.3206Z" fill="white"/>
<path d="M213.225 23.4536C213.225 24.9942 212.771 26.2565 211.864 27.2467C210.912 28.2646 209.654 28.7725 208.077 28.7725C206.562 28.7725 205.354 28.2858 204.451 27.3083C203.552 26.333 203.102 25.1026 203.102 23.6194C203.102 22.0681 203.565 20.7952 204.494 19.8071C205.424 18.819 206.674 18.3239 208.25 18.3239C209.765 18.3239 210.987 18.8105 211.908 19.7859C212.785 20.7336 213.225 21.9576 213.225 23.4536ZM210.844 23.5259C210.844 22.6015 210.638 21.8089 210.228 21.148C209.743 20.349 209.059 19.9495 208.165 19.9495C207.244 19.9495 206.542 20.349 206.058 21.148C205.645 21.8089 205.442 22.6142 205.442 23.5662C205.442 24.4906 205.648 25.2832 206.058 25.9441C206.555 26.7431 207.248 27.1426 208.143 27.1426C209.02 27.1426 209.711 26.7367 210.206 25.9229C210.629 25.2492 210.844 24.4502 210.844 23.5259Z" fill="white"/>
<path d="M225.581 28.5451H223.285V22.8076C223.285 21.0396 222.592 20.1556 221.2 20.1556C220.518 20.1556 219.968 20.3979 219.542 20.8845C219.117 21.3711 218.904 21.9449 218.904 22.6015V28.543H216.604V21.3903C216.604 20.5105 216.578 19.5564 216.523 18.5236H218.54L218.648 20.0898H218.711C218.981 19.6031 219.38 19.2015 219.902 18.8806C220.527 18.5066 221.222 18.3175 221.987 18.3175C222.949 18.3175 223.752 18.6193 224.39 19.2249C225.186 19.9665 225.581 21.0736 225.581 22.5441V28.5451Z" fill="white"/>
<path d="M241.045 20.1961H238.515V25.0623C238.515 26.2991 238.964 26.9175 239.854 26.9175C240.267 26.9175 240.609 26.8835 240.878 26.8133L240.937 28.5027C240.484 28.6685 239.887 28.7513 239.153 28.7513C238.245 28.7513 237.539 28.4836 237.028 27.9481C236.515 27.4126 236.261 26.5116 236.261 25.2472V20.1961H234.75V18.528H236.261V16.692L238.512 16.0332V18.5258H241.043V20.1961H241.045Z" fill="white"/>
<path d="M253.209 28.5451H250.909V22.8501C250.909 21.0545 250.217 20.1556 248.829 20.1556C247.763 20.1556 247.035 20.6763 246.636 21.7175C246.568 21.9364 246.529 22.2041 246.529 22.5186V28.543H244.233V13.9315H246.529V19.9686H246.572C247.296 18.87 248.333 18.3218 249.677 18.3218C250.629 18.3218 251.416 18.6235 252.041 19.2291C252.819 19.9835 253.209 21.1055 253.209 22.5888V28.5451Z" fill="white"/>
<path d="M265.758 23.0627C265.758 23.4622 265.727 23.7979 265.672 24.0721H258.781C258.811 25.0623 259.14 25.8167 259.778 26.3394C260.362 26.8069 261.114 27.0407 262.035 27.0407C263.054 27.0407 263.984 26.8834 264.821 26.5668L265.181 28.1138C264.201 28.5261 263.048 28.7322 261.712 28.7322C260.112 28.7322 258.851 28.2753 257.939 27.3616C257.022 26.4478 256.568 25.2217 256.568 23.6832C256.568 22.1723 256.992 20.9143 257.845 19.9113C258.735 18.8403 259.938 18.3048 261.458 18.3048C262.944 18.3048 264.074 18.8403 264.837 19.9113C265.453 20.7613 265.758 21.8132 265.758 23.0627ZM263.565 22.4868C263.583 21.8259 263.431 21.2564 263.12 20.7762C262.721 20.1578 262.113 19.8476 261.291 19.8476C260.541 19.8476 259.93 20.1493 259.463 20.7549C259.081 21.2373 258.855 21.8132 258.781 22.4868H263.565Z" fill="white"/>
<path d="M117.622 66.9459H112.642L109.915 58.6393H100.434L97.8357 66.9459H92.9879L102.381 38.6664H108.183L117.622 66.9459ZM109.092 55.1543L106.626 47.7699C106.365 47.0155 105.876 45.239 105.155 42.4425H105.067C104.78 43.6453 104.317 45.4218 103.681 47.7699L101.258 55.1543H109.092Z" fill="white"/>
<path d="M141.777 56.4995C141.777 59.9675 140.81 62.7087 138.877 64.7211C137.144 66.5125 134.994 67.4071 132.426 67.4071C129.655 67.4071 127.664 66.4424 126.451 64.5129H126.364V75.2547H121.689V53.2674C121.689 51.0871 121.63 48.8495 121.516 46.5545H125.627L125.888 49.7866H125.975C127.534 47.3514 129.9 46.1359 133.075 46.1359C135.557 46.1359 137.629 47.0857 139.287 48.9876C140.949 50.8916 141.777 53.3949 141.777 56.4995ZM137.015 56.6652C137.015 54.6805 136.555 53.0442 135.629 51.7565C134.619 50.4135 133.261 49.742 131.56 49.742C130.407 49.742 129.359 50.116 128.422 50.8534C127.484 51.5971 126.87 52.5682 126.583 53.771C126.438 54.332 126.366 54.791 126.366 55.1522V58.5522C126.366 60.0355 126.835 61.2871 127.773 62.3092C128.712 63.3314 129.931 63.8414 131.431 63.8414C133.191 63.8414 134.562 63.1826 135.542 61.8694C136.524 60.554 137.015 58.82 137.015 56.6652Z" fill="white"/>
<path d="M165.977 56.4995C165.977 59.9675 165.01 62.7087 163.074 64.7211C161.344 66.5125 159.193 67.4071 156.626 67.4071C153.854 67.4071 151.863 66.4424 150.653 64.5129H150.565V75.2547H145.891V53.2674C145.891 51.0871 145.832 48.8495 145.718 46.5545H149.829L150.09 49.7866H150.177C151.734 47.3514 154.1 46.1359 157.277 46.1359C159.757 46.1359 161.829 47.0857 163.491 48.9876C165.146 50.8916 165.977 53.3949 165.977 56.4995ZM161.215 56.6652C161.215 54.6805 160.752 53.0442 159.827 51.7565C158.816 50.4135 157.463 49.742 155.76 49.742C154.604 49.742 153.558 50.116 152.62 50.8534C151.681 51.5971 151.07 52.5682 150.782 53.771C150.64 54.332 150.565 54.791 150.565 55.1522V58.5522C150.565 60.0355 151.035 61.2871 151.969 62.3092C152.907 63.3292 154.126 63.8414 155.63 63.8414C157.391 63.8414 158.761 63.1826 159.741 61.8694C160.724 60.554 161.215 58.82 161.215 56.6652Z" fill="white"/>
<path d="M193.034 59.0154C193.034 61.4209 192.172 63.3781 190.442 64.889C188.541 66.5401 185.895 67.3646 182.494 67.3646C179.354 67.3646 176.837 66.7781 174.932 65.603L176.015 61.8268C178.067 63.0296 180.319 63.6331 182.772 63.6331C184.533 63.6331 185.903 63.2463 186.888 62.4771C187.868 61.7078 188.357 60.6751 188.357 59.3873C188.357 58.2398 187.953 57.273 187.144 56.4888C186.34 55.7047 184.996 54.9758 183.119 54.3022C178.01 52.4556 175.458 49.7505 175.458 46.1932C175.458 43.8685 176.352 41.9623 178.144 40.4791C179.929 38.9937 182.31 38.2521 185.287 38.2521C187.942 38.2521 190.148 38.7005 191.909 39.5951L190.74 43.2883C189.096 42.4213 187.236 41.9878 185.156 41.9878C183.511 41.9878 182.226 42.381 181.306 43.163C180.527 43.8621 180.137 44.7142 180.137 45.7236C180.137 46.8413 180.582 47.7657 181.477 48.4925C182.255 49.164 183.669 49.8907 185.721 50.6748C188.232 51.6545 190.076 52.7998 191.262 54.1131C192.444 55.4221 193.034 57.0604 193.034 59.0154Z" fill="white"/>
<path d="M208.489 49.9544H203.337V59.8548C203.337 62.3729 204.244 63.6309 206.064 63.6309C206.9 63.6309 207.593 63.5608 208.141 63.4205L208.27 66.8609C207.349 67.1945 206.137 67.3624 204.635 67.3624C202.789 67.3624 201.346 66.8163 200.304 65.7261C199.267 64.6339 198.745 62.8021 198.745 60.2288V49.9501H195.676V46.5501H198.745V42.8165L203.337 41.4735V46.5501H208.489V49.9544Z" fill="white"/>
<path d="M231.737 56.5823C231.737 59.7167 230.812 62.2901 228.966 64.3024C227.03 66.3743 224.46 67.4071 221.257 67.4071C218.17 67.4071 215.712 66.4147 213.879 64.4299C212.046 62.4452 211.129 59.9398 211.129 56.9202C211.129 53.7603 212.072 51.1721 213.964 49.1597C215.852 47.1452 218.4 46.1379 221.603 46.1379C224.69 46.1379 227.174 47.1303 229.049 49.1172C230.843 51.0446 231.737 53.5329 231.737 56.5823ZM226.887 56.7289C226.887 54.8483 226.473 53.2354 225.633 51.8903C224.653 50.2626 223.252 49.4508 221.436 49.4508C219.557 49.4508 218.13 50.2647 217.15 51.8903C216.31 53.2376 215.896 54.8759 215.896 56.8139C215.896 58.6946 216.31 60.3074 217.15 61.6504C218.161 63.2782 219.573 64.0899 221.395 64.0899C223.18 64.0899 224.581 63.2612 225.591 61.6079C226.453 60.2373 226.887 58.6074 226.887 56.7289Z" fill="white"/>
<path d="M246.932 50.5389C246.469 50.456 245.976 50.4135 245.459 50.4135C243.814 50.4135 242.542 51.0149 241.648 52.2197C240.869 53.2822 240.479 54.6252 240.479 56.2466V66.946H235.807L235.851 52.9762C235.851 50.626 235.791 48.4861 235.675 46.5566H239.747L239.918 50.4581H240.047C240.541 49.1172 241.319 48.0377 242.385 47.2281C243.426 46.4992 244.551 46.1359 245.763 46.1359C246.195 46.1359 246.586 46.1656 246.932 46.2187V50.5389Z" fill="white"/>
<path d="M267.838 55.7854C267.838 56.5972 267.783 57.2814 267.667 57.8403H253.643C253.698 59.8548 254.376 61.3954 255.678 62.4579C256.86 63.4078 258.388 63.8838 260.265 63.8838C262.341 63.8838 264.236 63.5629 265.94 62.919L266.672 66.064C264.681 66.9055 262.331 67.3242 259.618 67.3242C256.356 67.3242 253.795 66.3934 251.931 64.534C250.072 62.6747 249.14 60.1778 249.14 57.0455C249.14 53.9707 250.006 51.41 251.74 49.3679C253.556 47.1877 256.009 46.0975 259.096 46.0975C262.129 46.0975 264.424 47.1877 265.983 49.3679C267.218 51.0998 267.838 53.2418 267.838 55.7854ZM263.381 54.6103C263.411 53.2673 263.107 52.107 262.473 51.1274C261.664 49.8673 260.421 49.2383 258.748 49.2383C257.22 49.2383 255.976 49.8524 255.027 51.0849C254.249 52.0645 253.786 53.2397 253.643 54.6082H263.381V54.6103Z" fill="white"/>
</svg>
