<svg width="296" height="85" viewBox="0 0 296 85" fill="none" xmlns="http://www.w3.org/2000/svg">
<path d="M285.037 1.70266C290.113 1.70266 294.243 5.70563 294.243 10.625V74.375C294.243 79.2944 290.113 83.2973 285.037 83.2973H10.963C5.88711 83.2973 1.75681 79.2944 1.75681 74.375V10.625C1.75681 5.70563 5.88711 1.70266 10.963 1.70266H285.037ZM285.037 9.53674e-06H10.963C4.93607 9.53674e-06 0 4.78392 0 10.625V74.375C0 80.2161 4.93607 85 10.963 85H285.037C291.064 85 296 80.2161 296 74.375V10.625C296 4.78392 291.064 9.53674e-06 285.037 9.53674e-06Z" fill="white"/>
<path d="M21.2353 16.0198C20.5912 16.6732 20.2185 17.6906 20.2185 19.0081V66.0024C20.2185 67.3199 20.5912 68.3373 21.2353 68.9907L21.3943 69.1342L48.566 42.8107V42.1892L21.3943 15.8657L21.2353 16.0198Z" fill="white"/>
<path d="M60.9019 51.5896L51.8547 42.8107V42.1891L60.9129 33.4102L61.1157 33.5245L71.843 39.4399C74.9044 41.1187 74.9044 43.8812 71.843 45.5705L61.1157 51.4754L60.9019 51.5896Z" fill="white"/>
<path d="M59.4714 53.11L50.2104 44.1346L22.8798 70.6253C23.8966 71.6613 25.5547 71.7861 27.4404 70.7502L59.4714 53.11Z" fill="white"/>
<path d="M59.4714 31.8899L27.4404 14.2497C25.5547 13.2244 23.8966 13.3493 22.8798 14.3852L50.2104 40.8654L59.4714 31.8899Z" fill="white"/>
<path d="M103.967 21.768C103.967 23.5424 103.419 24.9634 102.339 26.0233C101.098 27.2797 99.4807 27.9119 97.4991 27.9119C95.6053 27.9119 93.9882 27.2691 92.6617 26.002C91.3324 24.7164 90.6692 23.1386 90.6692 21.25C90.6692 19.3614 91.3324 17.7836 92.6617 16.5086C93.9882 15.2309 95.6053 14.5881 97.4991 14.5881C98.4419 14.5881 99.3409 14.7767 100.199 15.1274C101.054 15.4806 101.75 15.9588 102.254 16.5484L101.109 17.6694C100.229 16.6627 99.0312 16.1659 97.4991 16.1659C96.1178 16.1659 94.9201 16.6334 93.9033 17.5764C92.8974 18.522 92.3931 19.7466 92.3931 21.25C92.3931 22.7534 92.8974 23.9886 93.9033 24.9342C94.9201 25.8666 96.1178 26.3447 97.4991 26.3447C98.9654 26.3447 100.199 25.8666 101.172 24.9236C101.813 24.2994 102.178 23.4388 102.273 22.3391H97.4991V20.8038H103.869C103.945 21.1358 103.967 21.4572 103.967 21.768Z" fill="white"/>
<path d="M114.072 16.4448H108.089V20.4823H113.483V22.0176H108.089V26.0551H114.072V27.6196H106.396V14.8802H114.072V16.4448Z" fill="white"/>
<path d="M121.204 27.6196H119.51V16.4448H115.84V14.8802H124.876V16.4448H121.204V27.6196Z" fill="white"/>
<path d="M131.416 27.6196V14.8802H133.107V27.6196H131.416Z" fill="white"/>
<path d="M140.603 27.6196H138.923V16.4448H135.239V14.8802H144.286V16.4448H140.603V27.6196Z" fill="white"/>
<path d="M161.394 25.9808C160.098 27.2691 158.492 27.9119 156.576 27.9119C154.649 27.9119 153.043 27.2691 151.747 25.9808C150.453 24.6952 149.809 23.1174 149.809 21.25C149.809 19.3827 150.453 17.8049 151.747 16.5192C153.043 15.2309 154.649 14.5881 156.576 14.5881C158.481 14.5881 160.087 15.2309 161.383 16.5299C162.688 17.8261 163.332 19.3933 163.332 21.25C163.332 23.1174 162.688 24.6952 161.394 25.9808ZM152.999 24.913C153.975 25.8666 155.162 26.3447 156.576 26.3447C157.979 26.3447 159.177 25.8666 160.141 24.913C161.114 23.9594 161.608 22.7349 161.608 21.25C161.608 19.7652 161.114 18.5406 160.141 17.587C159.177 16.6334 157.979 16.1553 156.576 16.1553C155.162 16.1553 153.975 16.6334 152.999 17.587C152.026 18.5406 151.533 19.7652 151.533 21.25C151.533 22.7349 152.026 23.9594 152.999 24.913Z" fill="white"/>
<path d="M165.708 27.6196V14.8802H167.763L174.155 24.7881H174.229L174.155 22.339V14.8802H175.846V27.6196H174.081L167.388 17.2231H167.314L167.388 19.6827V27.6196H165.708Z" fill="white"/>
<path d="M149.392 46.2241C144.242 46.2241 140.035 50.0225 140.035 55.2633C140.035 60.4616 144.242 64.2998 149.392 64.2998C154.553 64.2998 158.76 60.4616 158.76 55.2633C158.76 50.0225 154.553 46.2241 149.392 46.2241ZM149.392 60.7405C146.567 60.7405 144.136 58.48 144.136 55.2633C144.136 52.0041 146.567 49.7834 149.392 49.7834C152.218 49.7834 154.66 52.0041 154.66 55.2633C154.66 58.48 152.218 60.7405 149.392 60.7405ZM128.977 46.2241C123.816 46.2241 119.62 50.0225 119.62 55.2633C119.62 60.4616 123.816 64.2998 128.977 64.2998C134.135 64.2998 138.333 60.4616 138.333 55.2633C138.333 50.0225 134.135 46.2241 128.977 46.2241ZM128.977 60.7405C126.148 60.7405 123.709 58.48 123.709 55.2633C123.709 52.0041 126.148 49.7834 128.977 49.7834C131.802 49.7834 134.233 52.0041 134.233 55.2633C134.233 58.48 131.802 60.7405 128.977 60.7405ZM104.683 48.9945V52.8355H114.146C113.87 54.9817 113.13 56.5595 111.995 57.6592C110.614 58.9873 108.462 60.4615 104.683 60.4615C98.8585 60.4615 94.2979 55.9061 94.2979 50.2616C94.2979 44.617 98.8585 40.0616 104.683 40.0616C107.832 40.0616 110.123 41.2542 111.814 42.8002L114.607 40.0934C112.242 37.9047 109.095 36.2233 104.683 36.2233C96.6961 36.2233 89.984 42.5212 89.984 50.2616C89.984 58.0019 96.6961 64.2998 104.683 64.2998C108.999 64.2998 112.242 62.9292 114.79 60.358C117.402 57.8266 118.216 54.2672 118.216 51.3931C118.216 50.5006 118.14 49.6798 118.003 48.9945H104.683ZM204.023 51.9722C203.253 49.9508 200.877 46.2241 196.037 46.2241C191.241 46.2241 187.247 49.887 187.247 55.2633C187.247 60.3261 191.2 64.2998 196.497 64.2998C200.781 64.2998 203.253 61.7684 204.27 60.2942L201.091 58.2409C200.03 59.7444 198.586 60.7405 196.497 60.7405C194.423 60.7405 192.934 59.8187 191.981 58.0019L204.454 53.0001L204.023 51.9722ZM191.306 54.9817C191.2 51.4967 194.099 49.7117 196.177 49.7117C197.805 49.7117 199.186 50.5006 199.646 51.6295L191.306 54.9817ZM181.168 63.75H185.269V37.1875H181.168V63.75ZM174.454 48.2375H174.317C173.396 47.1803 171.639 46.2241 169.413 46.2241C164.743 46.2241 160.473 50.1978 160.473 55.2925C160.473 60.358 164.743 64.2998 169.413 64.2998C171.639 64.2998 173.396 63.3356 174.317 62.2466H174.454V63.5428C174.454 66.9986 172.549 68.8553 169.476 68.8553C166.971 68.8553 165.417 67.1022 164.776 65.628L161.21 67.0703C162.238 69.4662 164.96 72.4147 169.476 72.4147C174.284 72.4147 178.34 69.6734 178.34 63.0036V46.7739H174.454V48.2375ZM169.764 60.7405C166.938 60.7405 164.573 58.4481 164.573 55.2925C164.573 52.1076 166.938 49.7834 169.764 49.7834C172.549 49.7834 174.744 52.1076 174.744 55.2925C174.744 58.4481 172.549 60.7405 169.764 60.7405ZM223.22 37.1875H213.413V63.75H217.502V53.6855H223.22C227.761 53.6855 232.215 50.5006 232.215 45.4352C232.215 40.3723 227.75 37.1875 223.22 37.1875ZM223.326 49.9906H217.502V40.8823H223.326C226.38 40.8823 228.123 43.3394 228.123 45.4352C228.123 47.4911 226.38 49.9906 223.326 49.9906ZM248.604 46.1736C245.65 46.1736 242.577 47.438 241.314 50.2403L244.943 51.7145C245.724 50.2403 247.16 49.7622 248.678 49.7622C250.8 49.7622 252.951 50.9973 252.984 53.1781V53.457C252.244 53.0426 250.66 52.4291 248.711 52.4291C244.803 52.4291 240.821 54.5142 240.821 58.4056C240.821 61.965 244.022 64.2573 247.62 64.2573C250.372 64.2573 251.89 63.0541 252.844 61.6542H252.984V63.7075H256.933V53.5181C256.933 48.8086 253.305 46.1736 248.604 46.1736ZM248.111 60.7298C246.773 60.7298 244.91 60.087 244.91 58.48C244.91 56.4241 247.234 55.6351 249.246 55.6351C251.046 55.6351 251.89 56.0203 252.984 56.5276C252.663 58.9873 250.479 60.7298 248.111 60.7298ZM271.322 46.7553L266.622 58.2701H266.482L261.623 46.7553H257.213L264.514 62.8469L260.348 71.8011H264.621L275.872 46.7553H271.322ZM234.462 63.75H238.562V37.1875H234.462V63.75Z" fill="white"/>
</svg>
