<svg width="222" height="205" viewBox="0 0 222 205" fill="none" xmlns="http://www.w3.org/2000/svg">
<path d="M65.8933 68.9839V135.708H47.3668L21.9644 105.396V135.708H0V68.9839H18.5265L43.9289 99.2956V68.9839H65.8933Z" fill="white"/>
<path d="M108.84 85.9508V97.3892H136.725V114.356H108.84V135.708H86.3022V68.9839H140.64V85.9508H108.84Z" fill="white"/>
<path d="M191.414 137.233C184.347 137.233 177.98 135.771 172.314 132.848C166.648 129.861 162.191 125.731 158.945 120.457C155.761 115.119 154.17 109.082 154.17 102.346C154.17 95.6099 155.761 89.6047 158.945 84.3303C162.191 78.9924 166.648 74.8619 172.314 71.9388C177.98 68.9521 184.347 67.4587 191.414 67.4587C197.908 67.4587 203.701 68.6026 208.794 70.8903C213.888 73.1779 218.089 76.4823 221.4 80.8035L207.171 93.481C203.033 88.2702 198.162 85.6648 192.56 85.6648C187.848 85.6648 184.06 87.1899 181.195 90.2402C178.331 93.2269 176.898 97.2621 176.898 102.346C176.898 107.43 178.331 111.496 181.195 114.547C184.06 117.533 187.848 119.027 192.56 119.027C198.162 119.027 203.033 116.421 207.171 111.211L221.4 123.888C218.089 128.209 213.888 131.514 208.794 133.801C203.701 136.089 197.908 137.233 191.414 137.233Z" fill="white"/>
<path fill-rule="evenodd" clip-rule="evenodd" d="M23.0862 60.6664C38.7277 28.069 72.0808 5.55723 110.7 5.55723C149.319 5.55723 182.672 28.069 198.314 60.6664H204.449C188.419 24.9112 152.473 0 110.7 0C68.9266 0 32.9806 24.9112 16.9511 60.6664H23.0862ZM23.0862 144.334H16.9511C32.9806 180.089 68.9266 205 110.7 205C152.473 205 188.419 180.089 204.449 144.334H198.314C182.672 176.931 149.319 199.443 110.7 199.443C72.0808 199.443 38.7277 176.931 23.0862 144.334Z" fill="white"/>
</svg>
