<svg width="89" height="70" viewBox="0 0 89 70" fill="none" xmlns="http://www.w3.org/2000/svg">
<path d="M87.2354 68.2945V68.4725H87.4013C87.4325 68.473 87.4632 68.4652 87.4903 68.4498C87.5011 68.4422 87.5098 68.4319 87.5157 68.42C87.5215 68.4081 87.5243 68.395 87.5237 68.3817C87.5242 68.3688 87.5215 68.3558 87.5156 68.3442C87.5098 68.3326 87.5011 68.3227 87.4903 68.3154C87.4635 68.2993 87.4326 68.2914 87.4013 68.2927H87.2354V68.2945ZM87.4031 68.1686C87.4743 68.1642 87.5447 68.1847 87.6024 68.2265C87.6256 68.2454 87.644 68.2695 87.6561 68.2969C87.6682 68.3243 87.6738 68.3541 87.6723 68.384C87.6734 68.4097 87.6689 68.4353 87.6592 68.4592C87.6496 68.4831 87.6349 68.5046 87.6162 68.5223C87.5717 68.5611 87.5158 68.5843 87.4569 68.5886L87.6794 68.8423H87.5081L87.3034 68.5904H87.2371V68.8423H87.0939V68.1691H87.4053L87.4031 68.1686ZM87.3586 69.0745C87.4338 69.0752 87.5082 69.0601 87.5771 69.03C87.6435 69.0014 87.7039 68.9605 87.7551 68.9094C87.8063 68.8584 87.8473 68.798 87.8756 68.7315C87.934 68.5904 87.934 68.432 87.8756 68.291C87.8469 68.2247 87.806 68.1643 87.7551 68.113C87.7039 68.0619 87.6435 68.021 87.5771 67.9924C87.5078 67.964 87.4335 67.9498 87.3586 67.9506C87.2824 67.9499 87.2069 67.9641 87.1361 67.9924C87.0683 68.0205 87.0065 68.0614 86.9542 68.113C86.8755 68.1937 86.8222 68.2958 86.8011 68.4066C86.78 68.5173 86.7919 68.6319 86.8354 68.7359C86.8625 68.8027 86.9029 68.8632 86.9542 68.9139C87.0065 68.9654 87.0683 69.0064 87.1361 69.0345C87.2064 69.0645 87.2822 69.0796 87.3586 69.079V69.0745ZM87.3586 67.7886C87.5542 67.7884 87.742 67.8651 87.8814 68.0022C87.9487 68.068 88.0022 68.1465 88.0389 68.2331C88.077 68.3221 88.0966 68.4178 88.0966 68.5146C88.0966 68.6113 88.077 68.707 88.0389 68.796C88.0014 68.8821 87.9479 68.9605 87.8814 69.0269C87.8132 69.0924 87.7337 69.1451 87.6469 69.1826C87.5558 69.2214 87.4577 69.2411 87.3586 69.2405C87.2584 69.2412 87.1591 69.2215 87.0667 69.1826C86.9789 69.146 86.8988 69.0931 86.8305 69.0269C86.764 68.958 86.7113 68.8771 86.6752 68.7884C86.6371 68.6995 86.6175 68.6037 86.6175 68.507C86.6175 68.4103 86.6371 68.3145 86.6752 68.2256C86.7119 68.1389 86.7654 68.0604 86.8327 67.9946C86.9001 67.9272 86.9805 67.8743 87.069 67.8389C87.1613 67.8 87.2606 67.7803 87.3608 67.7811L87.3586 67.7886ZM19.2287 65.1888C19.2287 63.9051 20.0697 62.8506 21.4441 62.8506C22.7576 62.8506 23.6439 63.8598 23.6439 65.1888C23.6439 66.5179 22.7576 67.527 21.4441 67.527C20.0697 67.527 19.2287 66.4725 19.2287 65.1888ZM25.1411 65.1888V61.5358H23.5531V62.4257C23.0495 61.7681 22.2855 61.3556 21.2465 61.3556C19.1998 61.3556 17.5936 62.961 17.5936 65.1906C17.5936 67.4202 19.1989 69.0256 21.2465 69.0256C22.285 69.0256 23.0495 68.6127 23.5531 67.9555V68.8423H25.1394V65.1888H25.1411ZM78.7979 65.1888C78.7979 63.9051 79.6388 62.8506 81.0137 62.8506C82.3285 62.8506 83.2135 63.8598 83.2135 65.1888C83.2135 66.5179 82.3285 67.527 81.0137 67.527C79.6393 67.527 78.7979 66.4725 78.7979 65.1888ZM84.7121 65.1888V58.6036H83.1227V62.4257C82.6191 61.7681 81.8551 61.3556 80.8162 61.3556C78.7694 61.3556 77.1632 62.961 77.1632 65.1906C77.1632 67.4202 78.7685 69.0256 80.8162 69.0256C81.8551 69.0256 82.6191 68.6127 83.1227 67.9555V68.8423H84.7121V65.1888ZM44.8504 62.7754C45.8738 62.7754 46.531 63.417 46.6987 64.5468H42.9096C43.0791 63.4922 43.7194 62.7754 44.8508 62.7754H44.8504ZM44.8824 61.3516C42.7423 61.3516 41.245 62.9089 41.245 65.1866C41.245 67.5088 42.8023 69.0216 44.9888 69.0216C46.0887 69.0216 47.096 68.747 47.9824 67.9982L47.2042 66.8213C46.5919 67.3108 45.8124 67.5853 45.0796 67.5853C44.0562 67.5853 43.1245 67.1114 42.8953 65.7966H48.3179C48.3334 65.5991 48.3494 65.3997 48.3494 65.1861C48.3334 62.9094 46.9256 61.3512 44.8815 61.3512L44.8824 61.3516ZM64.0542 65.1861C64.0542 63.9025 64.8952 62.848 66.2696 62.848C67.5831 62.848 68.4694 63.8571 68.4694 65.1861C68.4694 66.5152 67.5831 67.5243 66.2696 67.5243C64.8952 67.5243 64.0538 66.4698 64.0538 65.1861H64.0542ZM69.9662 65.1861V61.5358H68.3791V62.4257C67.8736 61.7681 67.1114 61.3556 66.0725 61.3556C64.0257 61.3556 62.4195 62.961 62.4195 65.1906C62.4195 67.4202 64.0248 69.0256 66.0725 69.0256C67.1114 69.0256 67.8736 68.6127 68.3791 67.9555V68.8423H69.9666V65.1888L69.9662 65.1861ZM55.0863 65.1861C55.0863 67.4015 56.6285 69.0211 58.9823 69.0211C60.0822 69.0211 60.815 68.7764 61.6075 68.1504L60.8448 66.8667C60.2486 67.2952 59.6226 67.5243 58.9316 67.5243C57.6639 67.5088 56.7318 66.5922 56.7318 65.1861C56.7318 63.7801 57.6639 62.864 58.9316 62.848C59.6208 62.848 60.2468 63.0771 60.8448 63.5056L61.6075 62.2219C60.8137 61.5959 60.0809 61.3512 58.9823 61.3512C56.6285 61.3512 55.0863 62.9703 55.0863 65.1861ZM75.5582 61.3512C74.6421 61.3512 74.0454 61.7797 73.633 62.4213V61.5358H72.0592V68.8382H73.649V64.7448C73.649 63.5363 74.1682 62.8649 75.2063 62.8649C75.5462 62.86 75.8837 62.9224 76.1994 63.0486L76.6888 61.5518C76.3373 61.4135 75.8791 61.3525 75.5574 61.3525L75.5582 61.3512ZM32.9922 62.1165C32.2282 61.6128 31.1755 61.3525 30.0142 61.3525C28.1641 61.3525 26.973 62.2393 26.973 63.6902C26.973 64.8809 27.8598 65.6155 29.4927 65.8447L30.2429 65.9514C31.1136 66.0738 31.5248 66.303 31.5248 66.7154C31.5248 67.2801 30.9463 67.6022 29.8602 67.6022C28.7603 67.6022 27.9665 67.2507 27.4313 66.8382L26.6851 68.0765C27.5559 68.7181 28.6558 69.0242 29.8469 69.0242C31.9559 69.0242 33.1782 68.0311 33.1782 66.6407C33.1782 65.357 32.2162 64.6856 30.6269 64.4564L29.8785 64.3479C29.191 64.2589 28.6402 64.1205 28.6402 63.6311C28.6402 63.0971 29.1594 62.7759 30.0306 62.7759C30.9628 62.7759 31.8651 63.1274 32.3074 63.4019L32.9949 62.1183L32.9922 62.1165ZM53.4823 61.3538C52.5662 61.3538 51.9695 61.7823 51.5588 62.4239V61.5358H49.9851V68.8382H51.5731V64.7448C51.5731 63.5363 52.0923 62.8649 53.1304 62.8649C53.4703 62.86 53.8078 62.9224 54.1235 63.0486L54.6129 61.5518C54.2614 61.4135 53.8031 61.3525 53.4814 61.3525L53.4823 61.3538ZM39.9311 61.5358H37.3344V59.3204H35.729V61.5358H34.2478V62.9872H35.729V66.3185C35.729 68.0129 36.3867 69.022 38.2652 69.022C38.9544 69.022 39.7482 68.8084 40.2519 68.4574L39.7932 67.0976C39.3193 67.3722 38.8 67.5105 38.3871 67.5105C37.5934 67.5105 37.3344 67.0211 37.3344 66.2883V62.9886H39.9311V61.5358ZM16.1893 68.84V64.2571C16.1893 62.5312 15.0894 61.3699 13.3163 61.3543C12.3841 61.3387 11.4226 61.6288 10.7494 62.6535C10.2457 61.8437 9.45196 61.3543 8.33604 61.3543C7.55605 61.3543 6.79386 61.5834 6.19719 62.4386V61.5358H4.60785V68.8382H6.20965V64.7893C6.20965 63.5216 6.91266 62.848 7.99833 62.848C9.05284 62.848 9.58633 63.5354 9.58633 64.7732V68.8374H11.1917V64.7884C11.1917 63.5207 11.9245 62.8471 12.9786 62.8471C14.0629 62.8471 14.5804 63.5345 14.5804 64.7723V68.8365L16.1893 68.84Z" fill="white"/>
<path d="M88.1408 44.5488V43.481H87.8627L87.541 44.2138L87.2211 43.481H86.9421V44.5488H87.1397V43.7444L87.4405 44.4385H87.6451L87.9459 43.7426V44.5488H88.1417H88.1408ZM86.3766 44.5488V43.6638H86.7326V43.4836H85.8231V43.6638H86.179V44.5488H86.3748H86.3766Z" fill="#F79410"/>
<path d="M56.5333 49.1286H32.468V5.88H56.5337L56.5333 49.1286Z" fill="#FF5F00"/>
<path d="M33.9938 27.5052C33.9938 18.7322 38.1015 10.9172 44.498 5.88086C39.6562 2.063 33.6676 -0.00908074 27.5016 2.99157e-05C12.3125 2.99157e-05 0 12.3143 0 27.5052C0 42.696 12.3125 55.0103 27.5016 55.0103C33.6677 55.0195 39.6565 52.9474 44.4984 49.1295C38.1024 44.094 33.9938 36.2786 33.9938 27.5052Z" fill="#EB001B"/>
<path d="M89 27.5052C89 42.696 76.6875 55.0103 61.4984 55.0103C55.3316 55.0193 49.3422 52.9473 44.4993 49.1294C50.8976 44.0931 55.0054 36.2786 55.0054 27.5052C55.0054 18.7317 50.8976 10.9172 44.4993 5.88086C49.3421 2.06312 55.3314 -0.00892105 61.498 2.88722e-05C76.6871 2.88722e-05 88.9996 12.3143 88.9996 27.5052" fill="#F79E1B"/>
</svg>
