<svg width="70" height="70" viewBox="0 0 70 70" fill="none" xmlns="http://www.w3.org/2000/svg">
<path d="M26.3562 57.1053C24.7214 57.1053 25.0148 56.4806 24.4279 54.9399L19.6492 39.2827L49.3278 20.8772L52.8071 21.7933L49.9146 29.6219L26.3562 57.1053Z" fill="#C8DAEA"/>
<path d="M26.4036 57.1052C27.6755 57.1052 28.2267 56.5255 28.9474 55.8629C30.0498 54.8276 44.2106 41.3688 44.2106 41.3688L35.5191 39.2982L27.4635 44.2676L26.4036 56.6911V57.1052Z" fill="#A9C9DD"/>
<path d="M27.1517 44.5265L47.645 59.5531C49.9738 60.8159 51.6674 60.1845 52.2602 57.4064L60.6015 18.3456C61.4483 14.9362 59.2889 13.4209 57.0448 14.4311L8.09802 33.2039C4.75304 34.5508 4.79538 36.4028 7.50524 37.2026L20.0807 41.1171L49.1693 22.8915C50.5242 22.0497 51.7944 22.5127 50.7783 23.4387L27.1517 44.5265Z" fill="url(#paint0_linear_57_1525)"/>
<defs>
<linearGradient id="paint0_linear_57_1525" x1="39.4269" y1="35.8367" x2="49.9223" y2="52.7292" gradientUnits="userSpaceOnUse">
<stop stop-color="#EFF7FC"/>
<stop offset="1" stop-color="white"/>
</linearGradient>
</defs>
</svg>
