<svg width="70" height="70" viewBox="0 0 70 70" fill="none" xmlns="http://www.w3.org/2000/svg">
<path d="M64 17.6014C61.9028 18.5208 59.649 19.1422 57.2834 19.4217C59.6979 17.991 61.5521 15.7255 62.4253 13.0263C60.1658 14.3509 57.6631 15.3129 54.9993 15.8315C52.866 13.5848 49.8268 12.1809 46.4634 12.1809C40.0049 12.1809 34.7688 17.3566 34.7688 23.7404C34.7688 24.6464 34.8724 25.5287 35.0718 26.3747C25.3526 25.8927 16.7358 21.2905 10.968 14.2969C9.96144 16.0042 9.38475 17.9899 9.38475 20.1084C9.38475 24.1188 11.4495 27.657 14.5873 29.73C12.6702 29.67 10.8671 29.15 9.2903 28.2842C9.28947 28.3324 9.28947 28.3809 9.28947 28.4295C9.28947 34.0304 13.3205 38.7025 18.6702 39.7643C17.6888 40.0286 16.6557 40.1697 15.5891 40.1697C14.8356 40.1697 14.103 40.0974 13.3891 39.9624C14.8771 44.555 19.1958 47.8971 24.3131 47.9904C20.3108 51.0907 15.2684 52.9388 9.78964 52.9388C8.84579 52.9388 7.91487 52.8842 7 52.7774C12.1752 56.0572 18.3222 57.9708 24.9263 57.9708C46.4361 57.9708 58.1985 40.3565 58.1985 25.0809C58.1985 24.5796 58.1872 24.0811 58.1647 23.5854C60.4494 21.9556 62.4321 19.9196 64 17.6014Z" fill="white"/>
</svg>
