<svg width="89" height="57" viewBox="0 0 89 57" fill="none" xmlns="http://www.w3.org/2000/svg">
<path d="M84.6096 0.0168313L62.6928 0.0111084H62.6868C62.6696 0.0111084 62.6534 0.0141204 62.6368 0.0141204C59.626 0.106289 55.8757 2.52134 55.1929 5.49904L44.8281 51.3612C44.145 54.3669 46.0028 56.8124 48.992 56.8573H72.0169C74.96 56.7118 77.8208 54.3244 78.4919 51.3805L88.8572 5.51801C89.5512 2.48218 87.6488 0.0168313 84.6096 0.0168313Z" fill="#01798A"/>
<path d="M44.8285 51.3609L55.1932 5.49872C55.876 2.52102 59.6263 0.105973 62.6371 0.0138048L53.9227 0.00838313L38.2225 0.00537109C35.2032 0.0671178 31.4044 2.49904 30.7216 5.49902L20.3539 51.3609C19.6683 54.3666 21.5292 56.8121 24.5162 56.8569H48.9923C46.0032 56.8121 44.1453 54.3666 44.8285 51.3609Z" fill="#024381"/>
<path d="M20.3538 51.3609L30.7216 5.49877C31.4044 2.49878 35.2032 0.0668672 38.2224 0.00512047L18.1096 0C15.0734 0 11.1807 2.45993 10.4867 5.49877L0.118975 51.3609C0.0560239 51.6408 0.020783 51.9152 0 52.1832V53.0338C0.203011 55.2248 1.8762 56.8203 4.28131 56.8567H24.5162C21.5291 56.8121 19.6683 54.3666 20.3538 51.3609Z" fill="#DD0228"/>
<path d="M38.6466 33.4237H39.0273C39.377 33.4237 39.6122 33.3059 39.7228 33.0737L40.7119 31.5935H43.3604L42.8083 32.567H45.9839L45.5809 34.0589H41.802C41.3667 34.7137 40.8309 35.0212 40.1869 34.9848H38.2185L38.6466 33.4237ZM38.2116 35.5613H45.1697L44.726 37.1818H41.9276L41.5008 38.7456H44.2236L43.7803 40.3661H41.0574L40.4249 42.6772C40.2682 43.0637 40.4743 43.2372 41.0393 43.198H43.2583L42.8471 44.704H38.5866C37.7791 44.704 37.502 44.242 37.7553 43.3158L38.564 40.3664H36.8237L37.2658 38.7459H39.0065L39.4333 37.1821H37.7694L38.2116 35.5613ZM49.317 31.5821L49.2077 32.5309C49.2077 32.5309 50.52 31.5456 51.7119 31.5456H56.1164L54.432 37.6432C54.2923 38.3402 53.6932 38.6869 52.6354 38.6869H47.6429L46.4736 42.9685C46.4059 43.198 46.5013 43.3155 46.7531 43.3155H47.7357L47.3745 44.6447H44.8772C43.9188 44.6447 43.52 44.3564 43.6782 43.7772L46.9827 31.5821H49.317ZM53.0471 33.3059H49.1155L48.645 34.9514C48.645 34.9514 49.2998 34.4788 50.3941 34.4619C51.4854 34.4447 52.7308 34.4619 52.7308 34.4619L53.0471 33.3059ZM51.6224 37.1227C51.9131 37.1622 52.076 37.0474 52.0953 36.7757L52.336 35.9086H48.3986L48.0685 37.1227H51.6224ZM48.967 39.0929H51.2366L51.1941 40.0751H51.7983C52.1037 40.0751 52.2552 39.9772 52.2552 39.7842L52.4342 39.1489H54.3206L54.0688 40.0751C53.8555 40.8474 53.2908 41.2504 52.3727 41.2899H51.1637L51.158 42.9685C51.136 43.2375 51.3787 43.3745 51.8796 43.3745H53.0158L52.6492 44.704H49.9236C49.1595 44.7402 48.7848 44.3763 48.7929 43.604L48.967 39.0929ZM21.4647 23.4586C21.1569 24.9671 20.4433 26.1255 19.3364 26.9481C18.2394 27.7568 16.8249 28.1625 15.0927 28.1625C13.4626 28.1625 12.2677 27.7484 11.5051 26.9174C10.9762 26.327 10.7132 25.577 10.7132 24.6704C10.7132 24.2954 10.7581 23.8924 10.8476 23.4589L12.693 14.5605H15.4801L13.6602 23.3577C13.6081 23.5787 13.5829 23.8051 13.5849 24.0321C13.5819 24.4827 13.6939 24.852 13.9204 25.1403C14.2506 25.5686 14.7864 25.7809 15.5325 25.7809C16.39 25.7809 17.0966 25.5713 17.6451 25.1484C18.1936 24.7285 18.5517 24.1327 18.7126 23.3574L20.5385 14.5596H23.3117L21.4647 23.4586ZM33.1701 19.9577H35.3529L33.643 27.8996H31.4643L33.1701 19.9577ZM33.8571 17.0644H36.0595L35.6481 18.9921H33.446L33.8571 17.0644ZM37.2851 27.2951C36.714 26.7493 36.4258 26.0134 36.4231 25.0788C36.4231 24.9192 36.4327 24.7375 36.4541 24.5387C36.4752 24.3372 36.5017 24.1415 36.5393 23.9595C36.7981 22.6695 37.3496 21.6454 38.1987 20.8897C39.0465 20.1312 40.0694 19.7508 41.2673 19.7508C42.248 19.7508 43.0261 20.0252 43.5956 20.5734C44.1649 21.1249 44.4501 21.8689 44.4501 22.815C44.4501 22.977 44.4378 23.1647 44.4167 23.3662C44.3922 23.5648 44.3619 23.7627 44.3257 23.9595C44.0727 25.23 43.523 26.243 42.6736 26.9845C41.8242 27.7315 40.8041 28.1035 39.6149 28.1035C38.63 28.1038 37.8547 27.8351 37.2851 27.2951ZM41.445 25.7225C41.83 25.3056 42.1053 24.6731 42.2733 23.8309C42.2986 23.6993 42.3209 23.5622 42.3348 23.4252C42.3486 23.2909 42.3544 23.165 42.3544 23.0502C42.3544 22.5604 42.2297 22.18 41.9794 21.9113C41.7306 21.64 41.3767 21.5056 40.9191 21.5056C40.3146 21.5056 39.8218 21.718 39.436 22.1436C39.0468 22.5692 38.7709 23.2125 38.5975 24.0689C38.5737 24.2005 38.5541 24.3321 38.536 24.4607C38.5222 24.5924 38.5179 24.7153 38.5206 24.8273C38.5206 25.3143 38.6453 25.6893 38.8956 25.955C39.1447 26.221 39.4972 26.3523 39.9604 26.3523C40.5679 26.352 41.0601 26.1421 41.445 25.7225Z" fill="white"/>
<path d="M62.6871 0.0111337L53.9227 0.00842285L62.6371 0.0141457C62.6534 0.0141457 62.6699 0.0111337 62.6871 0.0111337Z" fill="#E02F41"/>
<path d="M53.9227 0.0084337L38.3429 0C38.3038 0 38.2631 0.00271083 38.2224 0.00542167L53.9227 0.0084337Z" fill="#2E4F7D"/>
<path d="M58.6127 33.4906L59.1389 31.6382H61.8004L61.6856 32.3183C61.6856 32.3183 63.0452 31.6382 64.0248 31.6382H67.3154L66.7925 33.4906H66.2748L63.7925 42.2273H64.3103L63.8178 43.9622H63.3001L63.0847 44.7149H60.5073L60.7224 43.9622H55.638L56.1335 42.2273H56.6429L59.1275 33.4906H58.6127ZM61.4841 33.4906L60.807 35.855C60.807 35.855 61.966 35.4101 62.9648 35.2842C63.1853 34.4589 63.4736 33.4906 63.4736 33.4906H61.4841ZM60.4935 36.9634L59.8136 39.4402C59.8136 39.4402 61.098 38.8077 61.9793 38.7547C62.2338 37.7975 62.4886 36.9637 62.4886 36.9637H60.4935V36.9634ZM60.9913 42.2273L61.5004 40.4306H59.5142L59.0019 42.2273H60.9913ZM67.4275 31.5234H69.9296L70.0359 32.4466C70.019 32.6815 70.1591 32.7939 70.4558 32.7939H70.8979L70.4506 34.3577H68.6118C67.91 34.3939 67.5488 34.1255 67.5151 33.5463L67.4275 31.5234ZM66.6943 34.8788H74.7982L74.3226 36.558H71.7425L71.3 38.1192H73.878L73.3991 39.7954H70.5284L69.879 40.7779H71.2844L71.6088 42.745C71.6473 42.9408 71.8208 43.036 72.1178 43.036H72.5539L72.0955 44.6559H70.5506C69.75 44.6953 69.3365 44.4267 69.3025 43.8474L68.9302 42.0508L67.6516 43.9622C67.3491 44.5023 66.8844 44.7541 66.2579 44.7149H63.8989L64.3576 43.0944H65.0937C65.3961 43.0944 65.6476 42.9604 65.8742 42.6887L67.8757 39.7954H65.2955L65.7738 38.1192H68.5723L69.0172 36.558H66.2163L66.6943 34.8788ZM24.0322 19.9551H26.0008L25.7755 21.1024L26.058 20.7749C26.6963 20.0921 27.4713 19.7536 28.3863 19.7536C29.2147 19.7536 29.8119 19.9942 30.1872 20.4783C30.5565 20.9623 30.6574 21.6313 30.4824 22.4903L29.3978 27.9023H27.3746L28.3538 22.9969C28.4547 22.4903 28.4267 22.1126 28.2713 21.8689C28.1177 21.6255 27.8237 21.5054 27.3996 21.5054C26.8791 21.5054 26.4412 21.6674 26.0843 21.9894C25.7261 22.3141 25.4897 22.7647 25.3734 23.3382L24.471 27.9023H22.4436L24.0322 19.9551ZM46.6077 19.9551H48.5781L48.3543 21.1024L48.6336 20.7749C49.2724 20.0921 50.0501 19.7536 50.9625 19.7536C51.7908 19.7536 52.389 19.9942 52.7616 20.4783C53.1287 20.9623 53.2344 21.6313 53.0555 22.4903L51.9751 27.9023H49.9492L50.929 22.9969C51.0296 22.4903 51.0013 22.1126 50.8474 21.8689C50.6878 21.6255 50.3995 21.5054 49.9772 21.5054C49.4564 21.5054 49.0203 21.6674 48.6592 21.9894C48.301 22.3141 48.0631 22.7647 47.9513 23.3382L47.0444 27.9023H45.0197L46.6077 19.9551ZM56.3465 15.0298H62.0663C63.1657 15.0298 64.0166 15.2789 64.6013 15.7683C65.1832 16.2641 65.4745 16.9747 65.4745 17.9009V17.9289C65.4745 18.1051 65.463 18.3039 65.4461 18.5192C65.417 18.7379 65.3797 18.9554 65.3344 19.1713C65.0823 20.3969 64.4977 21.3822 63.594 22.1292C62.6868 22.8734 61.6127 23.2484 60.376 23.2484H57.3085L56.36 27.902H53.7043L56.3465 15.0298ZM57.776 21.0102H60.3197C60.9826 21.0102 61.5088 20.856 61.8928 20.5511C62.2736 20.2433 62.5254 19.7731 62.6645 19.1352C62.6868 19.0174 62.701 18.9111 62.7178 18.8132C62.7263 18.721 62.7374 18.6283 62.7374 18.5391C62.7374 18.0828 62.5754 17.7527 62.2504 17.5454C61.926 17.3352 61.4166 17.2349 60.7115 17.2349H58.5513L57.776 21.0102ZM77.3618 29.4388C76.522 31.224 75.722 32.2647 75.2521 32.7487C74.7816 33.2276 73.8497 34.3412 71.6055 34.2571L71.7991 32.8948C73.6877 32.3125 74.7088 29.6903 75.2913 28.5291L74.597 19.9774L76.0578 19.9578H77.2834L77.4154 25.3222L79.7124 19.9578H82.0382L77.3618 29.4388ZM70.8588 20.6042L69.935 21.2394C68.9696 20.484 68.0883 20.0165 66.3871 20.8057C64.0699 21.8801 62.1335 30.1216 68.5139 27.4071L68.8775 27.8382L71.3877 27.9026L73.0362 20.4141L70.8588 20.6042ZM69.4311 24.6981C69.0281 25.8876 68.1275 26.6737 67.422 26.4499C66.7169 26.2315 66.4648 25.0843 66.8738 23.8921C67.2769 22.6999 68.1835 21.9165 68.8829 22.1403C69.588 22.3587 69.8425 23.506 69.4311 24.6981Z" fill="white"/>
</svg>
