<svg width="133" height="43" viewBox="0 0 133 43" fill="none" xmlns="http://www.w3.org/2000/svg">
<path d="M57.4634 42.2833H46.6481L53.4075 0.742279H64.2239L57.4634 42.2833ZM37.5496 0.742279L27.2388 29.3145L26.0188 23.1618L26.0199 23.164L22.3807 4.48257C22.3807 4.48257 21.9407 0.742279 17.2503 0.742279H0.204532L0.0045166 1.44567C0.0045166 1.44567 5.21714 2.53019 11.3176 6.19381L20.7139 42.2844H31.9825L49.1894 0.742279H37.5496ZM122.617 42.2833H132.548L123.89 0.741168H115.196C111.181 0.741168 110.203 3.83696 110.203 3.83696L94.0729 42.2833H105.347L107.602 36.1128H121.351L122.617 42.2833ZM110.716 27.5888L116.399 12.0432L119.596 27.5888H110.716ZM94.9185 10.7319L96.462 1.81125C96.462 1.81125 91.6994 0 86.7346 0C81.3675 0 68.622 2.34574 68.622 13.7522C68.622 24.4841 83.581 24.6175 83.581 30.2546C83.581 35.8917 70.1633 34.8816 65.7352 31.3269L64.1273 40.6543C64.1273 40.6543 68.9565 43 76.3349 43C83.7154 43 94.8496 39.1786 94.8496 28.7778C94.8496 17.9769 79.7562 16.9713 79.7562 12.2754C79.7574 7.57837 90.2904 8.18174 94.9185 10.7319Z" fill="#2566AF"/>
<path d="M25.9272 23.1493L22.3003 4.37598C22.3003 4.37598 21.8618 0.61731 17.1873 0.61731H0.199338L0 1.32415C0 1.32415 8.16509 3.03041 15.9968 9.42329C23.4853 15.5336 25.9272 23.1493 25.9272 23.1493Z" fill="#E6A540"/>
</svg>
